<mxfile host="drawio-plugin" modified="2021-05-07T08:14:40.496Z" agent="5.0 (Macintosh; Intel Mac OS X 10_16_0) AppleWebKit/537.36 (KHTML, like Gecko) Chrome/84.0.4147.105 Safari/537.36" etag="O6SVbCuTitlq6-Oe8JPJ" version="13.7.9" type="embed" pages="2"><diagram id="kgpKYQtTHZ0yAKxKKP6v" name="Page-1"><mxGraphModel dx="766" dy="737" grid="1" gridSize="10" guides="1" tooltips="1" connect="1" arrows="1" fold="1" page="1" pageScale="1" pageWidth="850" pageHeight="1100" math="0" shadow="0"><root><mxCell id="0"/><mxCell id="1" parent="0"/><mxCell id="3nuBFxr9cyL0pnOWT2aG-5" value=":System&#10;" style="shape=umlLifeline;perimeter=lifelinePerimeter;container=1;collapsible=0;recursiveResize=0;rounded=0;shadow=0;strokeWidth=1;" parent="1" vertex="1"><mxGeometry x="300" y="80" width="100" height="320" as="geometry"/></mxCell><mxCell id="3nuBFxr9cyL0pnOWT2aG-6" value="" style="points=[];perimeter=orthogonalPerimeter;rounded=0;shadow=0;strokeWidth=1;" parent="3nuBFxr9cyL0pnOWT2aG-5" vertex="1"><mxGeometry x="45" y="80" width="10" height="160" as="geometry"/></mxCell><mxCell id="3nuBFxr9cyL0pnOWT2aG-7" value="Check if username and password &#10;available" style="verticalAlign=bottom;endArrow=open;dashed=1;endSize=8;exitX=0;exitY=0.95;shadow=0;strokeWidth=1;" parent="1" source="3nuBFxr9cyL0pnOWT2aG-6" edge="1"><mxGeometry y="-12" relative="1" as="geometry"><mxPoint x="175" y="311.9999999999998" as="targetPoint"/><mxPoint as="offset"/></mxGeometry></mxCell><mxCell id="3nuBFxr9cyL0pnOWT2aG-8" value="enterInfo (UserName,Password,&#10;Name, Address,&#10;PhoneNr,Email,DriversLicenseID)" style="verticalAlign=bottom;endArrow=block;shadow=0;strokeWidth=1;" parent="1" target="3nuBFxr9cyL0pnOWT2aG-5" edge="1"><mxGeometry y="10" relative="1" as="geometry"><mxPoint x="175" y="260" as="sourcePoint"/><Array as="points"><mxPoint x="250" y="260"/><mxPoint x="300" y="260"/></Array><mxPoint as="offset"/></mxGeometry></mxCell><mxCell id="3nuBFxr9cyL0pnOWT2aG-9" value="RegisterPage" style="verticalAlign=bottom;endArrow=block;entryX=1;entryY=0;shadow=0;strokeWidth=1;" parent="1" source="3nuBFxr9cyL0pnOWT2aG-6" edge="1"><mxGeometry x="0.0303" y="-10" relative="1" as="geometry"><mxPoint x="240" y="200" as="sourcePoint"/><mxPoint x="180" y="200" as="targetPoint"/><mxPoint as="offset"/></mxGeometry></mxCell><mxCell id="BwzSLycgrK5DvkaKQcVK-1" value="Client&lt;br&gt;" style="shape=umlActor;verticalLabelPosition=bottom;verticalAlign=top;html=1;outlineConnect=0;" parent="1" vertex="1"><mxGeometry x="150" y="30" width="30" height="60" as="geometry"/></mxCell><mxCell id="BwzSLycgrK5DvkaKQcVK-2" value="" style="endArrow=none;dashed=1;html=1;dashPattern=1 3;strokeWidth=2;" parent="1" edge="1"><mxGeometry width="50" height="50" relative="1" as="geometry"><mxPoint x="160" y="400" as="sourcePoint"/><mxPoint x="160" y="120" as="targetPoint"/></mxGeometry></mxCell><mxCell id="BwzSLycgrK5DvkaKQcVK-3" value="Register User&lt;br&gt;" style="text;html=1;strokeColor=none;fillColor=none;align=center;verticalAlign=middle;whiteSpace=wrap;rounded=0;" parent="1" vertex="1"><mxGeometry x="240" y="30" width="40" height="20" as="geometry"/></mxCell><mxCell id="BwzSLycgrK5DvkaKQcVK-4" value="" style="verticalAlign=bottom;endArrow=block;entryX=0;entryY=0;shadow=0;strokeWidth=1;" parent="1" edge="1"><mxGeometry y="10" relative="1" as="geometry"><mxPoint x="185" y="170.0000000000001" as="sourcePoint"/><mxPoint x="355" y="170.0000000000001" as="targetPoint"/><mxPoint as="offset"/></mxGeometry></mxCell><mxCell id="BwzSLycgrK5DvkaKQcVK-5" value="Register" style="text;html=1;strokeColor=none;fillColor=none;align=center;verticalAlign=middle;whiteSpace=wrap;rounded=0;" parent="1" vertex="1"><mxGeometry x="240" y="140" width="40" height="20" as="geometry"/></mxCell><mxCell id="BwzSLycgrK5DvkaKQcVK-8" value="" style="endArrow=classic;html=1;" parent="1" source="3nuBFxr9cyL0pnOWT2aG-5" edge="1"><mxGeometry width="50" height="50" relative="1" as="geometry"><mxPoint x="330" y="340" as="sourcePoint"/><mxPoint x="170" y="360" as="targetPoint"/><Array as="points"><mxPoint x="250" y="360"/></Array></mxGeometry></mxCell><mxCell id="BwzSLycgrK5DvkaKQcVK-9" value="Send Confirmation Email&lt;br&gt;" style="text;html=1;strokeColor=none;fillColor=none;align=center;verticalAlign=middle;whiteSpace=wrap;rounded=0;" parent="1" vertex="1"><mxGeometry x="230" y="330" width="40" height="20" as="geometry"/></mxCell></root></mxGraphModel></diagram><diagram id="md3GC9L3mGIKZi-9WXKe" name="Page-2"><mxGraphModel dx="766" dy="737" grid="1" gridSize="10" guides="1" tooltips="1" connect="1" arrows="1" fold="1" page="1" pageScale="1" pageWidth="850" pageHeight="1100" math="0" shadow="0"><root><mxCell id="X34RTKEfTDktOeaD_0X2-0"/><mxCell id="X34RTKEfTDktOeaD_0X2-1" parent="X34RTKEfTDktOeaD_0X2-0"/><mxCell id="WvdiGnnzsVd_D08l3NNb-0" value=":System&#10;" style="shape=umlLifeline;perimeter=lifelinePerimeter;container=1;collapsible=0;recursiveResize=0;rounded=0;shadow=0;strokeWidth=1;" parent="X34RTKEfTDktOeaD_0X2-1" vertex="1"><mxGeometry x="300" y="80" width="100" height="280" as="geometry"/></mxCell><mxCell id="WvdiGnnzsVd_D08l3NNb-1" value="" style="points=[];perimeter=orthogonalPerimeter;rounded=0;shadow=0;strokeWidth=1;" parent="WvdiGnnzsVd_D08l3NNb-0" vertex="1"><mxGeometry x="45" y="80" width="10" height="160" as="geometry"/></mxCell><mxCell id="WvdiGnnzsVd_D08l3NNb-2" value="Registration Success" style="verticalAlign=bottom;endArrow=open;dashed=1;endSize=8;shadow=0;strokeWidth=1;" parent="X34RTKEfTDktOeaD_0X2-1" source="WvdiGnnzsVd_D08l3NNb-0" edge="1"><mxGeometry y="-12" relative="1" as="geometry"><mxPoint x="170" y="220" as="targetPoint"/><mxPoint as="offset"/><Array as="points"><mxPoint x="320" y="220"/><mxPoint x="260" y="220"/><mxPoint x="240" y="220"/></Array></mxGeometry></mxCell><mxCell id="WvdiGnnzsVd_D08l3NNb-4" value="Register user" style="verticalAlign=bottom;endArrow=block;shadow=0;strokeWidth=1;" parent="X34RTKEfTDktOeaD_0X2-1" source="WvdiGnnzsVd_D08l3NNb-1" edge="1"><mxGeometry x="0.0303" y="-10" relative="1" as="geometry"><mxPoint x="240" y="200" as="sourcePoint"/><mxPoint x="170" y="250" as="targetPoint"/><mxPoint as="offset"/><Array as="points"><mxPoint x="260" y="250"/></Array></mxGeometry></mxCell><mxCell id="WvdiGnnzsVd_D08l3NNb-5" value="Client&lt;br&gt;" style="shape=umlActor;verticalLabelPosition=bottom;verticalAlign=top;html=1;outlineConnect=0;" parent="X34RTKEfTDktOeaD_0X2-1" vertex="1"><mxGeometry x="150" y="30" width="30" height="60" as="geometry"/></mxCell><mxCell id="WvdiGnnzsVd_D08l3NNb-6" value="" style="endArrow=none;dashed=1;html=1;dashPattern=1 3;strokeWidth=2;" parent="X34RTKEfTDktOeaD_0X2-1" edge="1"><mxGeometry width="50" height="50" relative="1" as="geometry"><mxPoint x="160" y="360" as="sourcePoint"/><mxPoint x="160" y="120" as="targetPoint"/></mxGeometry></mxCell><mxCell id="WvdiGnnzsVd_D08l3NNb-7" value="Confirm Email" style="text;html=1;strokeColor=none;fillColor=none;align=center;verticalAlign=middle;whiteSpace=wrap;rounded=0;" parent="X34RTKEfTDktOeaD_0X2-1" vertex="1"><mxGeometry x="240" y="30" width="40" height="20" as="geometry"/></mxCell><mxCell id="WvdiGnnzsVd_D08l3NNb-8" value="" style="verticalAlign=bottom;endArrow=block;entryX=0;entryY=0;shadow=0;strokeWidth=1;" parent="X34RTKEfTDktOeaD_0X2-1" edge="1"><mxGeometry y="10" relative="1" as="geometry"><mxPoint x="170" y="170" as="sourcePoint"/><mxPoint x="355" y="170.0000000000001" as="targetPoint"/><mxPoint as="offset"/></mxGeometry></mxCell><mxCell id="WvdiGnnzsVd_D08l3NNb-9" value="pressConfirmationButton" style="text;html=1;strokeColor=none;fillColor=none;align=center;verticalAlign=middle;whiteSpace=wrap;rounded=0;" parent="X34RTKEfTDktOeaD_0X2-1" vertex="1"><mxGeometry x="240" y="140" width="40" height="20" as="geometry"/></mxCell></root></mxGraphModel></diagram></mxfile>